<svg xmlns="http://www.w3.org/2000/svg" width="20.352" height="16.005" viewBox="0 0 20.352 16.005">
  <g id="Group_5" data-name="Group 5" transform="translate(-794 -734)">
    <g id="Page-1" transform="translate(793.956 734)">
      <g id="Voorkeuren" transform="translate(-932 -124)">
        <path id="n" d="M934.956,139.907l7.667-7.666a.347.347,0,0,0,0-.482l-7.667-7.666a.357.357,0,0,0-.481,0l-2.334,2.333a.347.347,0,0,0,0,.481L937.234,132l-5.093,5.093a.347.347,0,0,0,0,.481l2.334,2.333A.345.345,0,0,0,934.956,139.907Z" fill="#23303f"/>
      </g>
    </g>
    <g id="Page-1-2" data-name="Page-1" transform="translate(803.632 734)">
      <g id="Voorkeuren-2" data-name="Voorkeuren" transform="translate(-932 -124)">
        <path id="n-2" data-name="n" d="M934.956,139.907l7.667-7.666a.347.347,0,0,0,0-.482l-7.667-7.666a.357.357,0,0,0-.481,0l-2.334,2.333a.347.347,0,0,0,0,.481L937.234,132l-5.093,5.093a.347.347,0,0,0,0,.481l2.334,2.333A.345.345,0,0,0,934.956,139.907Z" fill="#23303f"/>
      </g>
    </g>
  </g>
</svg>
