<?xml version="1.0" encoding="UTF-8"?>
<svg width="27px" height="12px" viewBox="0 0 27 12" version="1.1" xmlns="http://www.w3.org/2000/svg" xmlns:xlink="http://www.w3.org/1999/xlink">
    <title>noun_Camping_3341154</title>
    <g id="Page-1" stroke="none" stroke-width="1" fill="none" fill-rule="evenodd">
        <g id="Spreekuren-(secretaris)" transform="translate(-203.000000, -122.000000)" fill="#000000">
            <g id="noun_Camping_3341154" transform="translate(203.914724, 122.000000)">
                <path d="M14.8971449,9.77879971 C15.8202218,11.1115199 17.3586833,12 19.1279141,12 C21.8202218,12 24.1279141,9.85283972 24.1279141,7.18739936 C24.1279141,5.04023908 22.6663756,3.26327884 20.6663756,2.59691875 C18.3586833,1.11611856 14.4356064,-0.51276166 13.2817603,0.153598429 C12.5894526,0.523798478 12.2817603,1.4122786 12.5894526,2.15267869 L11.6663756,2.15267869 C11.974068,1.4122786 11.5894526,0.523798478 10.8971449,0.153598429 C9.74329873,-0.51276166 5.89714488,1.11611856 3.5125295,2.59691875 C1.58945257,3.26327884 0.12791411,5.04023908 0.12791411,7.18739936 C0.12791411,9.85283972 2.35868334,12 5.12791411,12 C6.89714488,12 8.43560642,11.1115199 9.35868334,9.77879971 L9.35868334,9.77879971 L14.8971449,9.77879971 L14.8971449,9.77879971 Z M12.1279141,6.07679921 C12.8202218,6.07679921 13.4356064,6.66911929 13.4356064,7.40951939 C13.4356064,8.07587948 12.8202218,8.66819956 12.1279141,8.66819956 C11.3586833,8.66819956 10.7432987,8.07587948 10.7432987,7.40951939 C10.7432987,6.66911929 11.3586833,6.07679921 12.1279141,6.07679921 Z M5.12791411,3.26327884 C7.35868334,3.26327884 9.20483719,5.04023908 9.20483719,7.18739936 C9.20483719,9.33455965 7.35868334,11.1115199 5.12791411,11.1115199 C2.89714488,11.1115199 1.05099103,9.33455965 1.05099103,7.18739936 C1.05099103,5.04023908 2.89714488,3.26327884 5.12791411,3.26327884 Z M19.1279141,3.26327884 C16.8202218,3.26327884 15.050991,5.04023908 15.050991,7.18739936 C15.050991,9.33455965 16.8202218,11.1115199 19.1279141,11.1115199 C21.3586833,11.1115199 23.1279141,9.33455965 23.1279141,7.18739936 C23.1279141,5.04023908 21.3586833,3.26327884 19.1279141,3.26327884 Z" id="Shape"></path>
            </g>
        </g>
    </g>
</svg>