<svg xmlns="http://www.w3.org/2000/svg" version="1.1" xmlns:xlink="http://www.w3.org/1999/xlink" xmlns:svgjs="http://svgjs.com/svgjs" width="15" height="15" x="0" y="0" viewBox="0 0 174.239 174.239" style="enable-background:new 0 0 15 15" xml:space="preserve" class=""><g><path d="M74.439 157.519a4.199 4.199 0 0 1-6.111.313L1.38 94.468a4.447 4.447 0 0 1-.173-6.267l21.33-22.539a4.447 4.447 0 0 1 6.267-.173L65.375 100.1a4.199 4.199 0 0 0 6.111-.313l71.447-83.015a4.445 4.445 0 0 1 6.251-.468l23.518 20.242a4.446 4.446 0 0 1 .468 6.252L74.439 157.519z" fill="#ffffff" data-original="#ffffff" class=""></path></g></svg>