<?xml version="1.0" encoding="UTF-8"?>
<svg width="20px" height="18px" viewBox="0 0 20 18" version="1.1" xmlns="http://www.w3.org/2000/svg" xmlns:xlink="http://www.w3.org/1999/xlink">
    <title>Shape</title>
    <g id="Page-1" stroke="none" stroke-width="1" fill="none" fill-rule="evenodd">
        <g id="Praktijk-Planner" transform="translate(-283.000000, -493.000000)" fill="#FFFFFF" fill-rule="nonzero">
            <g id="noun_balance_1159106" transform="translate(282.353533, 493.000000)">
                <path d="M20.6420239,6.00529568 L17.327205,0 L12.188347,2.11070483 C11.7439549,1.5251674 10.9841404,1.2933025 10.2981636,1.53389671 C9.61218673,1.77449091 9.152042,2.43423487 9.15346584,3.17513554 C9.15055335,3.23410699 9.15055335,3.29319095 9.15346584,3.3521624 L3.95462113,5.48783256 L3.95462113,5.48783256 L0.646467391,11.4931282 L0.646467391,11.4931282 C0.646467391,13.3639049 2.13105973,14.880469 3.96239718,14.880469 C5.79373464,14.880469 7.27832698,13.3639049 7.27832698,11.4931282 L7.27832698,11.4931282 L4.51005326,6.47963687 L9.62002882,4.37801034 C9.80543728,4.57494444 10.0338327,4.72426546 10.2865474,4.81376876 L10.2865474,16.8652125 L3.09036875,16.8652125 L3.09036875,18 L18.6002554,18 L18.6002554,16.8652125 L11.4040768,16.8652125 L11.4040768,4.81376876 C12.0869998,4.57327177 12.5461058,3.91759196 12.548267,3.17967469 L16.4585092,1.57508511 L14.0146078,6.00529568 L14.0146078,6.00529568 C14.0146078,7.87607235 15.4992001,9.39263649 17.3305376,9.39263649 C19.1618751,9.39263649 20.6464674,7.87607235 20.6464674,6.00529568 L20.6464674,6.00529568 L20.6420239,6.00529568 Z M1.95728721,11.4931282 L3.95684286,7.86180809 L5.95639852,11.4931282 L1.95728721,11.4931282 Z M15.3098755,6.00756525 L17.3094312,2.37624511 L19.3089868,6.00756525 L15.3098755,6.00756525 Z" id="Shape"></path>
            </g>
        </g>
    </g>
</svg>