<?xml version="1.0" encoding="UTF-8"?>
<svg width="36px" height="21px" viewBox="0 0 36 21" version="1.1" xmlns="http://www.w3.org/2000/svg" xmlns:xlink="http://www.w3.org/1999/xlink">
    <title>Group 8</title>
    <defs>
        <path d="M28.6464831,12.0000315 C31.9520474,12.0000315 34.6464989,9.31946889 34.6464989,6.00001574 C34.6464989,2.69445151 31.9520474,0 28.6464831,0 C25.32703,0 22.6464674,2.69445151 22.6464674,6.00001574 C22.6464674,9.31946889 25.32703,12.0000315 28.6464831,12.0000315 Z M29.3964851,7.25001901 L27.8964812,7.25001901 L27.8964812,6.7500177 C27.8964812,5.25000459 29.8964864,5.25000459 29.8964864,4.25000459 C29.8964864,3.75000459 29.3964851,3.25000459 28.6464766,3.25000459 C27.8964812,3.25000459 27.1464766,4.00001049 27.1464766,4.00001049 L26.1464766,3.00000787 C26.1464766,3.00000787 27.1464766,1.75000459 28.6464766,1.75000459 C30.160376,1.75000459 31.3964903,2.75000459 31.3964903,4.25000459 C31.3964903,6.25001639 29.3964851,6.25001639 29.3964851,7.00001836 L29.3964851,7.25001901 Z M28.6464805,10.5000223 C28.0909261,10.5000223 27.6464805,10.0555819 27.6464805,9.50002229 C27.6464805,8.9444679 28.0909261,8.50002229 28.6464805,8.50002229 C29.2020401,8.50002229 29.6464805,8.9444679 29.6464805,9.50002229 C29.6464805,10.0555819 29.2020401,10.5000223 28.6464805,10.5000223 Z" id="path-1"></path>
    </defs>
    <g id="Page-1" stroke="none" stroke-width="1" fill="none" fill-rule="evenodd">
        <g id="Praktijk-Planner" transform="translate(-276.000000, -450.000000)" fill-rule="nonzero">
            <g id="Group-8" transform="translate(276.353533, 449.999969)">
                <g id="noun_balance_1159106" transform="translate(0.000000, 3.000031)" fill="#FFFFFF">
                    <path d="M20.6420239,6.00529568 L17.327205,0 L12.188347,2.11070483 C11.7439549,1.5251674 10.9841404,1.2933025 10.2981636,1.53389671 C9.61218673,1.77449091 9.152042,2.43423487 9.15346584,3.17513554 C9.15055335,3.23410699 9.15055335,3.29319095 9.15346584,3.3521624 L3.95462113,5.48783256 L3.95462113,5.48783256 L0.646467391,11.4931282 L0.646467391,11.4931282 C0.646467391,13.3639049 2.13105973,14.880469 3.96239718,14.880469 C5.79373464,14.880469 7.27832698,13.3639049 7.27832698,11.4931282 L7.27832698,11.4931282 L4.51005326,6.47963687 L9.62002882,4.37801034 C9.80543728,4.57494444 10.0338327,4.72426546 10.2865474,4.81376876 L10.2865474,16.8652125 L3.09036875,16.8652125 L3.09036875,18 L18.6002554,18 L18.6002554,16.8652125 L11.4040768,16.8652125 L11.4040768,4.81376876 C12.0869998,4.57327177 12.5461058,3.91759196 12.548267,3.17967469 L16.4585092,1.57508511 L14.0146078,6.00529568 L14.0146078,6.00529568 C14.0146078,7.87607235 15.4992001,9.39263649 17.3305376,9.39263649 C19.1618751,9.39263649 20.6464674,7.87607235 20.6464674,6.00529568 L20.6464674,6.00529568 L20.6420239,6.00529568 Z M1.95728721,11.4931282 L3.95684286,7.86180809 L5.95639852,11.4931282 L1.95728721,11.4931282 Z M15.3098755,6.00756525 L17.3094312,2.37624511 L19.3089868,6.00756525 L15.3098755,6.00756525 Z" id="Shape"></path>
                </g>
                <g id="h">
                    <use fill="#22303E" xlink:href="#path-1"></use>
                    <use fill="#FFFFFF" xlink:href="#path-1"></use>
                </g>
            </g>
        </g>
    </g>
</svg>