<?xml version="1.0" encoding="UTF-8"?>
<svg width="34px" height="17px" viewBox="0 0 34 17" version="1.1" xmlns="http://www.w3.org/2000/svg" xmlns:xlink="http://www.w3.org/1999/xlink">
    <title>Group 6</title>
    <defs>
        <path d="M26.0128362,12.0000315 C29.3184005,12.0000315 32.012852,9.31946889 32.012852,6.00001574 C32.012852,2.69445151 29.3184005,0 26.0128362,0 C22.6933831,0 20.0128205,2.69445151 20.0128205,6.00001574 C20.0128205,9.31946889 22.6933831,12.0000315 26.0128362,12.0000315 Z M26.7628382,7.25001901 L25.2628343,7.25001901 L25.2628343,6.7500177 C25.2628343,5.25000459 27.2628395,5.25000459 27.2628395,4.25000459 C27.2628395,3.75000459 26.7628382,3.25000459 26.0128297,3.25000459 C25.2628343,3.25000459 24.5128297,4.00001049 24.5128297,4.00001049 L23.5128297,3.00000787 C23.5128297,3.00000787 24.5128297,1.75000459 26.0128297,1.75000459 C27.5267291,1.75000459 28.7628435,2.75000459 28.7628435,4.25000459 C28.7628435,6.25001639 26.7628382,6.25001639 26.7628382,7.00001836 L26.7628382,7.25001901 Z M26.0128336,10.5000223 C25.4572792,10.5000223 25.0128336,10.0555819 25.0128336,9.50002229 C25.0128336,8.9444679 25.4572792,8.50002229 26.0128336,8.50002229 C26.5683933,8.50002229 27.0128336,8.9444679 27.0128336,9.50002229 C27.0128336,10.0555819 26.5683933,10.5000223 26.0128336,10.5000223 Z" id="path-1"></path>
    </defs>
    <g id="Page-1" stroke="none" stroke-width="1" fill="none" fill-rule="evenodd">
        <g id="Praktijk-Planner" transform="translate(-278.000000, -284.000000)" fill-rule="nonzero">
            <g id="Group-6" transform="translate(278.987179, 283.999969)">
                <g id="noun_education_3406896" transform="translate(0.000000, 7.000031)" fill="#FFFFFF">
                    <g id="Group" transform="translate(0.012821, 0.000000)">
                        <path d="M9.5,6.46153846 C9.24270833,6.46153846 9.00520833,6.42307692 8.74791667,6.36538462 L4.0375,5.15384615 L4.0375,8.44230769 C4.0375,8.67307692 4.17604167,8.90384615 4.39375,9 C5.06666667,9.30769231 6.72916667,9.94230769 9.5,9.94230769 C12.2708333,9.94230769 13.9333333,9.32692308 14.60625,9 C14.8239583,8.88461538 14.9625,8.67307692 14.9625,8.44230769 L14.9625,5.15384615 L10.2520833,6.36538462 C9.99479167,6.42307692 9.75729167,6.46153846 9.5,6.46153846 Z" id="Path"></path>
                        <path d="M18.64375,2.36538462 L9.93541667,0.115384615 C9.63854167,0.0384615385 9.34166667,0.0384615385 9.04479167,0.115384615 L0.336458333,2.36538462 C5.41233725e-16,2.44230769 5.41233725e-16,2.90384615 0.336458333,3 L9.04479167,5.25 C9.34166667,5.32692308 9.63854167,5.32692308 9.93541667,5.25 L16.5260417,3.55769231 L16.5260417,5.88461538 C16.1697917,6.01923077 15.8927083,6.34615385 15.8927083,6.75 C15.8927083,7.26923077 16.328125,7.67307692 16.8427083,7.67307692 C17.3770833,7.67307692 17.7927083,7.25 17.7927083,6.75 C17.7927083,6.34615385 17.5354167,6.01923077 17.159375,5.88461538 L17.159375,3.38461538 L18.6239583,3 C18.9802083,2.90384615 18.9802083,2.44230769 18.64375,2.36538462 Z" id="Path"></path>
                    </g>
                </g>
                <g id="h">
                    <use fill="#22303E" xlink:href="#path-1"></use>
                    <use fill="#FFFFFF" xlink:href="#path-1"></use>
                </g>
            </g>
        </g>
    </g>
</svg>