<?xml version="1.0" encoding="UTF-8"?>
<svg width="21px" height="10px" viewBox="0 0 21 10" version="1.1" xmlns="http://www.w3.org/2000/svg" xmlns:xlink="http://www.w3.org/1999/xlink">
    <title>noun_education_3406896</title>
    <g id="Page-1" stroke="none" stroke-width="1" fill="none" fill-rule="evenodd">
        <g id="Voorkeuren" transform="translate(-107.000000, -324.000000)" fill="#FFFFFF" fill-rule="nonzero">
            <g id="noun_education_3406896" transform="translate(107.987179, 324.000000)">
                <g id="Group" transform="translate(0.012821, 0.000000)">
                    <path d="M9.5,6.46153846 C9.24270833,6.46153846 9.00520833,6.42307692 8.74791667,6.36538462 L4.0375,5.15384615 L4.0375,8.44230769 C4.0375,8.67307692 4.17604167,8.90384615 4.39375,9 C5.06666667,9.30769231 6.72916667,9.94230769 9.5,9.94230769 C12.2708333,9.94230769 13.9333333,9.32692308 14.60625,9 C14.8239583,8.88461538 14.9625,8.67307692 14.9625,8.44230769 L14.9625,5.15384615 L10.2520833,6.36538462 C9.99479167,6.42307692 9.75729167,6.46153846 9.5,6.46153846 Z" id="Path"></path>
                    <path d="M18.64375,2.36538462 L9.93541667,0.115384615 C9.63854167,0.0384615385 9.34166667,0.0384615385 9.04479167,0.115384615 L0.336458333,2.36538462 C5.41233725e-16,2.44230769 5.41233725e-16,2.90384615 0.336458333,3 L9.04479167,5.25 C9.34166667,5.32692308 9.63854167,5.32692308 9.93541667,5.25 L16.5260417,3.55769231 L16.5260417,5.88461538 C16.1697917,6.01923077 15.8927083,6.34615385 15.8927083,6.75 C15.8927083,7.26923077 16.328125,7.67307692 16.8427083,7.67307692 C17.3770833,7.67307692 17.7927083,7.25 17.7927083,6.75 C17.7927083,6.34615385 17.5354167,6.01923077 17.159375,5.88461538 L17.159375,3.38461538 L18.6239583,3 C18.9802083,2.90384615 18.9802083,2.44230769 18.64375,2.36538462 Z" id="Path"></path>
                </g>
            </g>
        </g>
    </g>
</svg>