<svg xmlns="http://www.w3.org/2000/svg" xmlns:xlink="http://www.w3.org/1999/xlink" width="57" height="44" viewBox="0 0 57 44">
  <defs>
    <linearGradient id="linear-gradient" x1="0.117" y1="0.108" x2="0.821" y2="0.938" gradientUnits="objectBoundingBox">
      <stop offset="0" stop-color="#d0bb48"/>
      <stop offset="1" stop-color="#eeb030"/>
    </linearGradient>
  </defs>
  <g id="Group_12" data-name="Group 12" transform="translate(-96 -425)">
    <rect id="Rectangle" width="57" height="44" transform="translate(96 425)" fill="url(#linear-gradient)"/>
    <g id="Page-1" transform="translate(115 438)">
      <g id="Voorkeuren" transform="translate(-108 -399)">
        <g id="noun_Callendar_3855735" transform="translate(108.934 399)">
          <path id="Shape" d="M15.355,3.015V3.8a1.739,1.739,0,0,1-1.622,1.74A1.714,1.714,0,0,1,11.823,3.8c0-.27-.013-.537-.013-.8H5.369v.457a3.747,3.747,0,0,1-.059.652A1.705,1.705,0,0,1,3.631,5.544a1.7,1.7,0,0,1-1.777-1.4,4.749,4.749,0,0,1-.072-.789V3.007H.066V18h17V3.015Zm.1,13.323H1.631v-8.5H15.416c.142.522.173,7.633.035,8.5Z" fill="#fff"/>
          <path id="Path" d="M14.061,2.51c0,.425.012.85,0,1.275C14.036,4.524,13.645,5,13.084,5a1.126,1.126,0,0,1-1-1.213c-.021-.871-.024-1.745,0-2.616A1.069,1.069,0,0,1,13.105,0,.9.9,0,0,1,13.8.37a1.345,1.345,0,0,1,.265.866c-.021.425,0,.85,0,1.275Z" fill="#fff"/>
          <path id="Path-2" data-name="Path" d="M5.061,2.489c0,.426.009.851,0,1.277a1.355,1.355,0,0,1-.277.866.916.916,0,0,1-.7.368A1.175,1.175,0,0,1,3.066,3.793c.026-.87,0-1.745.012-2.617A1.274,1.274,0,0,1,3.368.315.845.845,0,0,1,4.089,0c.583,0,.951.46.972,1.215.012.426,0,.851,0,1.277Z" fill="#fff"/>
          <text id="FTE" transform="translate(4 14)" fill="#fff" font-size="5" font-family="SegoeUI-Bold, Segoe UI" font-weight="700"><tspan x="0" y="0">FTE</tspan></text>
        </g>
      </g>
    </g>
  </g>
</svg>
