<?xml version="1.0" encoding="UTF-8"?>
<svg width="33px" height="21px" viewBox="0 0 33 21" version="1.1" xmlns="http://www.w3.org/2000/svg" xmlns:xlink="http://www.w3.org/1999/xlink">
    <title>Group 7</title>
    <defs>
        <path d="M25.0662808,12.0000315 C28.371845,12.0000315 31.0662965,9.31946889 31.0662965,6.00001574 C31.0662965,2.69445151 28.371845,0 25.0662808,0 C21.7468276,0 19.0662651,2.69445151 19.0662651,6.00001574 C19.0662651,9.31946889 21.7468276,12.0000315 25.0662808,12.0000315 Z M25.8162828,7.25001901 L24.3162788,7.25001901 L24.3162788,6.7500177 C24.3162788,5.25000459 26.3162841,5.25000459 26.3162841,4.25000459 C26.3162841,3.75000459 25.8162828,3.25000459 25.0662742,3.25000459 C24.3162788,3.25000459 23.5662742,4.00001049 23.5662742,4.00001049 L22.5662742,3.00000787 C22.5662742,3.00000787 23.5662742,1.75000459 25.0662742,1.75000459 C26.5801737,1.75000459 27.816288,2.75000459 27.816288,4.25000459 C27.816288,6.25001639 25.8162828,6.25001639 25.8162828,7.00001836 L25.8162828,7.25001901 Z M25.0662782,10.5000223 C24.5107238,10.5000223 24.0662782,10.0555819 24.0662782,9.50002229 C24.0662782,8.9444679 24.5107238,8.50002229 25.0662782,8.50002229 C25.6218378,8.50002229 26.0662782,8.9444679 26.0662782,9.50002229 C26.0662782,10.0555819 25.6218378,10.5000223 25.0662782,10.5000223 Z" id="path-1"></path>
    </defs>
    <g id="Page-1" stroke="none" stroke-width="1" fill="none" fill-rule="evenodd">
        <g id="Praktijk-Planner" transform="translate(-277.000000, -368.000000)" fill-rule="nonzero">
            <g id="Group-7" transform="translate(277.933735, 367.999969)">
                <g id="noun_Callendar_3855735" transform="translate(0.000000, 3.000031)" fill="#FFFFFF">
                    <path d="M15.3548704,3.0152218 C15.3548704,3.28486518 15.3548704,3.54581038 15.3548704,3.80458104 C15.3110446,4.77442737 14.6361284,5.48985213 13.7333184,5.54421571 C12.6508229,5.6138011 11.8663424,4.90924906 11.8225167,3.80458104 C11.8225167,3.53493766 11.809369,3.26746883 11.809369,3 L5.36917818,3 C5.36917818,3.15004349 5.36917818,3.30226153 5.36917818,3.4566541 C5.36854021,3.6753988 5.34874414,3.89367456 5.31001345,4.10901711 C5.18102271,4.93124514 4.47001215,5.53918433 3.63148806,5.54421571 C2.76525232,5.5951572 1.99932471,4.99065832 1.85435477,4.14163526 C1.80828959,3.88095343 1.78410244,3.61692774 1.78204232,3.35227602 C1.78204232,3.23702522 1.78204232,3.12177443 1.78204232,3.00652363 L0.0662650602,3.00652363 L0.0662650602,18 L17.0662651,18 L17.0662651,3.0152218 L15.3548704,3.0152218 Z M15.451287,16.3386489 L1.63084356,16.3386489 L1.63084356,7.83835894 L15.4162264,7.83835894 C15.55866,8.36024935 15.589338,15.4710061 15.451287,16.3386489 L15.451287,16.3386489 Z" id="Shape"></path>
                    <path d="M14.0608491,2.50954822 C14.0608491,2.93453522 14.073035,3.35952221 14.0608491,3.78450921 C14.0364775,4.52398658 13.6447901,5.00422189 13.084242,5 C12.5341247,5 12.0870901,4.45811471 12.0832632,3.78663414 C12.0623732,2.9154108 12.0588916,2.04206252 12.0832632,1.17083918 C12.105894,0.439861542 12.5254347,0.0191244149 13.105132,0 C13.368043,0.00372822496 13.618486,0.137390362 13.7992501,0.370452749 C13.9800142,0.603515136 14.0756573,0.916068044 14.0643308,1.23671216 C14.0434408,1.66169916 14.0643308,2.08668616 14.0643308,2.51167315 L14.0608491,2.50954822 Z" id="Path"></path>
                    <path d="M5.06081706,2.48901548 C5.06081706,2.91460608 5.06957277,3.34019667 5.06081706,3.76578727 C5.0678719,4.08794619 4.96819785,4.40006009 4.78415762,4.63210356 C4.60011739,4.86414702 4.34712017,4.99669168 4.08192806,5 C3.53705833,4.97890261 3.09597157,4.45491687 3.06626506,3.79345066 C3.09253221,2.92311789 3.06626506,2.04852921 3.07852306,1.17606849 C3.06971133,0.85211856 3.17494954,0.538962977 3.36785344,0.315112942 C3.56075733,0.0912629078 3.82303565,-0.0220559992 4.08893263,0.00356639285 C4.67206329,0.00356639285 5.03980334,0.463204237 5.06081706,1.21862755 C5.07307506,1.64421814 5.06081706,2.06980874 5.06081706,2.49539934 L5.06081706,2.48901548 Z" id="Path"></path>
                    <path d="M5.13,14 L5.13,12.525 L6.625,12.525 L6.625,11.915 L5.13,11.915 L5.13,11.09 L6.855,11.09 L6.855,10.43 L4.345,10.43 L4.345,14 L5.13,14 Z M8.885,14 L8.885,11.09 L9.955,11.09 L9.955,10.43 L7.03,10.43 L7.03,11.09 L8.1,11.09 L8.1,14 L8.885,14 Z M13.075,14 L13.075,13.34 L11.15,13.34 L11.15,12.465 L12.88,12.465 L12.88,11.855 L11.15,11.855 L11.15,11.09 L13.035,11.09 L13.035,10.43 L10.365,10.43 L10.365,14 L13.075,14 Z" id="FTE"></path>
                </g>
                <g id="h">
                    <use fill="#22303E" xlink:href="#path-1"></use>
                    <use fill="#FFFFFF" xlink:href="#path-1"></use>
                </g>
            </g>
        </g>
    </g>
</svg>