<?xml version="1.0" encoding="UTF-8"?>
<svg width="30px" height="20px" viewBox="0 0 30 20" version="1.1" xmlns="http://www.w3.org/2000/svg" xmlns:xlink="http://www.w3.org/1999/xlink">
    <title>Group 5</title>
    <defs>
        <path d="M24.0000157,12 C27.30558,12 30.0000315,9.31943741 30.0000315,5.99998426 C30.0000315,2.69442004 27.30558,-3.14712524e-05 24.0000157,-3.14712524e-05 C20.6805626,-3.14712524e-05 18,2.69442004 18,5.99998426 C18,9.31943741 20.6805626,12 24.0000157,12 Z M24.7500177,7.24998754 L23.2500138,7.24998754 L23.2500138,6.74998623 C23.2500138,5.24997312 25.250019,5.24997312 25.250019,4.24997312 C25.250019,3.74997312 24.7500177,3.24997312 24.0000092,3.24997312 C23.2500138,3.24997312 22.5000092,3.99997902 22.5000092,3.99997902 L21.5000092,2.9999764 C21.5000092,2.9999764 22.5000092,1.74997312 24.0000092,1.74997312 C25.5139086,1.74997312 26.7500229,2.74997312 26.7500229,4.24997312 C26.7500229,6.24998492 24.7500177,6.24998492 24.7500177,6.99998689 L24.7500177,7.24998754 Z M24.0000131,10.4999908 C23.4444587,10.4999908 23.0000131,10.0555505 23.0000131,9.49999082 C23.0000131,8.94443643 23.4444587,8.49999082 24.0000131,8.49999082 C24.5555727,8.49999082 25.0000131,8.94443643 25.0000131,9.49999082 C25.0000131,10.0555505 24.5555727,10.4999908 24.0000131,10.4999908 Z" id="path-1"></path>
    </defs>
    <g id="Page-1" stroke="none" stroke-width="1" fill="none" fill-rule="evenodd">
        <g id="Praktijk-Planner" transform="translate(-279.000000, -196.000000)" fill-rule="nonzero">
            <g id="Group" transform="translate(265.223094, 190.000000)">
                <g id="Group-5" transform="translate(13.776906, 6.000000)">
                    <path d="M8.98315789,16.0486975 L10.2536842,11.2555957 C10.5936842,11.0838 10.9694737,11.0322612 11.3273684,11.1181591 C11.8463158,11.2384161 12.24,11.6163668 12.4010526,12.1145745 C12.4547368,12.2691907 12.58,12.3722682 12.7231579,12.4066273 C12.8842105,12.458166 13.0452632,12.4238069 13.1705263,12.2863703 C13.5463158,11.9255992 14.1010526,11.770983 14.6021053,11.89124 C15.0673684,12.0114971 15.4431579,12.337909 15.64,12.784578 C15.7115789,12.9563738 15.9084211,13.0766308 16.1052632,13.0594512 C16.3021053,13.0422716 16.4810526,12.904835 16.5168421,12.7330393 C16.5168421,12.6986801 16.5347368,12.664321 16.5526316,12.5956027 L16.5526316,12.5612435 C17.0894737,9.84687047 15.0136842,7.09813827 11.6315789,6.01582497 L11.7031579,5.77531091 C11.7747368,5.46607853 11.56,5.12248701 11.1842105,5.01940955 C10.8263158,4.93351167 10.4505263,5.13966659 10.3431579,5.50043769 L10.2894737,5.75813133 C6.78210526,5.15684616 3.59684211,6.65146929 2.70210526,9.3143036 C2.70210526,9.33148318 2.66631579,9.40020148 2.66631579,9.41738106 C2.61263158,9.6063564 2.70210526,9.79533174 2.86315789,9.89840919 C3.04210526,10.0014867 3.25684211,9.98430707 3.4,9.86405004 C3.79368421,9.55481767 4.27684211,9.43456064 4.76,9.55481767 C5.27894737,9.6750747 5.67263158,10.070205 5.83368421,10.5512331 C5.86947368,10.7058493 6.01263158,10.8261063 6.17368421,10.8604655 C6.33473684,10.8948246 6.49578947,10.8604655 6.62105263,10.7402084 C6.99684211,10.3794373 7.55157895,10.2248211 8.05263158,10.3450782 C8.41052632,10.4309761 8.71473684,10.6543105 8.92947368,10.9463633 L7.56947368,16.065877 C3.31052632,16.1689545 0,17.0107537 0,18.0243487 C0,19.1238416 3.81157895,20 8.5,20 C13.1884211,20 17,19.106662 17,18.0243487 C17,16.9763946 13.4568421,16.1174158 8.98315789,16.0486975 Z" id="Path" fill="#FFFFFF"></path>
                    <g id="h">
                        <use fill="#22303E" xlink:href="#path-1"></use>
                        <use fill="#FFFFFF" xlink:href="#path-1"></use>
                    </g>
                </g>
            </g>
        </g>
    </g>
</svg>