<?xml version="1.0" encoding="UTF-8"?>
<svg width="25px" height="20px" viewBox="0 0 19 15" version="1.1" xmlns="http://www.w3.org/2000/svg" xmlns:xlink="http://www.w3.org/1999/xlink">
    <title>Group</title>
    <g id="Page-1" stroke="none" stroke-width="1" fill="none" fill-rule="evenodd">
        <g id="Voorkeuren" transform="translate(-108.000000, -361.000000)" fill="#000000" fill-rule="nonzero">
            <g id="Group" transform="translate(108.223094, 361.000000)">
                <path d="M9.76006434,11.0486975 L11.0305907,6.25559571 C11.3705907,6.08379995 11.7463801,6.03226122 12.1042749,6.1181591 C12.6232222,6.23841614 13.0169064,6.61636681 13.1779591,7.11457452 C13.2316433,7.26919071 13.3569064,7.37226817 13.5000643,7.40662732 C13.5000643,7.40662732 13.5000643,7.40662732 13.5000643,7.40662732 C13.661117,7.45816605 13.8221696,7.4238069 13.9474328,7.28637029 C14.3232222,6.92559919 14.8779591,6.770983 15.3790117,6.89124003 C15.8442749,7.01149707 16.2200643,7.33790901 16.4169064,7.784578 C16.4884854,7.95637376 16.6853275,8.07663079 16.8821696,8.05945121 C17.0790117,8.04227164 17.2579591,7.90483503 17.2937486,7.73303927 C17.2937486,7.69868011 17.3116433,7.66432096 17.329538,7.59560266 L17.329538,7.5612435 C17.8663801,4.84687047 15.7905907,2.09813827 12.4084854,1.01582497 L12.4800643,0.775310906 C12.5516433,0.466078534 12.3369064,0.12248701 11.961117,0.0194095527 C11.6032222,-0.0664883283 11.2274328,0.139666586 11.1200643,0.500437686 L11.0663801,0.758131329 C7.55901171,0.156846162 4.37374855,1.65146929 3.47901171,4.3143036 C3.47901171,4.33148318 3.44322224,4.40020148 3.44322224,4.41738106 C3.38953803,4.6063564 3.47901171,4.79533174 3.64006434,4.89840919 C3.81901171,5.00148665 4.03374855,4.98430707 4.17690645,4.86405004 C4.57059066,4.55481767 5.05374855,4.43456064 5.53690645,4.55481767 C6.05585382,4.6750747 6.44953803,5.07020496 6.61059066,5.55123309 C6.64638013,5.70584928 6.78953803,5.82610631 6.95059066,5.86046546 C7.11164329,5.89482461 7.27269592,5.86046546 7.39795908,5.74020843 C7.77374855,5.37943733 8.3284854,5.22482114 8.82953803,5.34507817 C9.18743276,5.43097606 9.49164329,5.65431055 9.70638013,5.94636334 L8.34638013,11.065877 C4.08743276,11.1689545 0.776906448,12.0107537 0.776906448,13.0243487 C0.776906448,14.1238416 4.5884854,15 9.27690645,15 C13.9653275,15 17.7769064,14.106662 17.7769064,13.0243487 C17.7769064,11.9763946 14.2337486,11.1174158 9.76006434,11.0486975 Z" id="Path"></path>
            </g>
        </g>
    </g>
</svg>