<svg xmlns="http://www.w3.org/2000/svg" xmlns:xlink="http://www.w3.org/1999/xlink" width="57" height="46" viewBox="0 0 57 46">
  <defs>
    <linearGradient id="linear-gradient" x1="0.95" y1="0.989" x2="0.069" y2="0.127" gradientUnits="objectBoundingBox">
      <stop offset="0" stop-color="#d81d1d"/>
      <stop offset="0.422" stop-color="#e5273c"/>
      <stop offset="1" stop-color="#f63566"/>
    </linearGradient>
  </defs>
  <g id="Group_6" data-name="Group 6" transform="translate(-0.777 10)">
    <rect id="Rectangle" width="57" height="46" transform="translate(0.777 -10)" fill="url(#linear-gradient)"/>
    <g id="Page-1" transform="translate(14.777 2.952)">
      <g id="Praktijk-Planner">
        <g id="Group" transform="translate(0 0)">
          <g id="Group-5" transform="translate(0 0)">
            <path id="Path" d="M8.983,16.049l1.271-4.793a1.563,1.563,0,0,1,1.074-.137,1.472,1.472,0,0,1,1.074,1,.45.45,0,0,0,.322.292.409.409,0,0,0,.447-.12,1.517,1.517,0,0,1,2.47.5.472.472,0,0,0,.465.275.457.457,0,0,0,.411-.326.748.748,0,0,1,.036-.137v-.034c.537-2.714-1.539-5.463-4.921-6.545l.072-.241a.666.666,0,0,0-.519-.756.707.707,0,0,0-.841.481l-.054.258C6.782,5.157,3.6,6.651,2.7,9.314c0,.017-.036.086-.036.1a.433.433,0,0,0,.2.481A.47.47,0,0,0,3.4,9.864a1.56,1.56,0,0,1,1.36-.309,1.5,1.5,0,0,1,1.074,1,.439.439,0,0,0,.34.309.481.481,0,0,0,.447-.12,1.572,1.572,0,0,1,1.432-.4,1.548,1.548,0,0,1,.877.6l-1.36,5.12C3.311,16.169,0,17.011,0,18.024,0,19.124,3.812,20,8.5,20s8.5-.893,8.5-1.976C17,16.976,13.457,16.117,8.983,16.049Z" transform="translate(0 0)" fill="#fff"/>
            <g id="h" transform="translate(18)">
              <path id="Path_1" data-name="Path 1" d="M24,12a6,6,0,1,0-6-6A6,6,0,0,0,24,12Zm.75-4.75h-1.5v-.5c0-1.5,2-1.5,2-2.5a1.144,1.144,0,0,0-1.25-1A2.619,2.619,0,0,0,22.5,4l-1-1A3.541,3.541,0,0,1,24,1.75a2.562,2.562,0,0,1,2.75,2.5c0,2-2,2-2,2.75ZM24,10.5a1,1,0,1,1,1-1A1,1,0,0,1,24,10.5Z" transform="translate(-18 0)" fill="#22303e"/>
              <path id="Path_2" data-name="Path 2" d="M24,12a6,6,0,1,0-6-6A6,6,0,0,0,24,12Zm.75-4.75h-1.5v-.5c0-1.5,2-1.5,2-2.5a1.144,1.144,0,0,0-1.25-1A2.619,2.619,0,0,0,22.5,4l-1-1A3.541,3.541,0,0,1,24,1.75a2.562,2.562,0,0,1,2.75,2.5c0,2-2,2-2,2.75ZM24,10.5a1,1,0,1,1,1-1A1,1,0,0,1,24,10.5Z" transform="translate(-18 0)" fill="#fff"/>
            </g>
          </g>
        </g>
      </g>
    </g>
  </g>
</svg>
