<svg xmlns="http://www.w3.org/2000/svg" xmlns:xlink="http://www.w3.org/1999/xlink" width="57" height="44" viewBox="0 0 57 44">
  <defs>
    <linearGradient id="linear-gradient" x1="0.95" y1="0.989" x2="0.111" y2="0.168" gradientUnits="objectBoundingBox">
      <stop offset="0" stop-color="#8c0a0a"/>
      <stop offset="0.422" stop-color="#cd1327"/>
      <stop offset="1" stop-color="#cd1745"/>
    </linearGradient>
  </defs>
  <g id="Group_7" data-name="Group 7" transform="translate(-0.777 -44.48)">
    <rect id="Rectangle" width="57" height="44" transform="translate(0.777 44.48)" fill="url(#linear-gradient)"/>
    <path id="Path" d="M8.983,11.049l1.271-4.793a1.563,1.563,0,0,1,1.074-.137,1.472,1.472,0,0,1,1.074,1,.45.45,0,0,0,.322.292h0a.409.409,0,0,0,.447-.12,1.517,1.517,0,0,1,2.469.5.472.472,0,0,0,.465.275.457.457,0,0,0,.412-.326.747.747,0,0,1,.036-.137V7.561c.537-2.714-1.539-5.463-4.921-6.545L11.7.775a.666.666,0,0,0-.519-.756A.707.707,0,0,0,10.343.5l-.054.258C6.782.157,3.6,1.651,2.7,4.314c0,.017-.036.086-.036.1a.433.433,0,0,0,.2.481A.47.47,0,0,0,3.4,4.864a1.56,1.56,0,0,1,1.36-.309,1.5,1.5,0,0,1,1.074,1,.439.439,0,0,0,.34.309.481.481,0,0,0,.447-.12,1.572,1.572,0,0,1,1.432-.4,1.548,1.548,0,0,1,.877.6l-1.36,5.12C3.311,11.169,0,12.011,0,13.024,0,14.124,3.812,15,8.5,15s8.5-.893,8.5-1.976C17,11.976,13.457,11.117,8.983,11.049Z" transform="translate(20.777 59.48)" fill="#fff"/>
  </g>
</svg>
