<?xml version="1.0" encoding="UTF-8"?>
<svg width="550px" height="234px" viewBox="0 0 550 234" version="1.1" xmlns="http://www.w3.org/2000/svg" xmlns:xlink="http://www.w3.org/1999/xlink">
    <title>noun-send-mail-314921</title>
    <defs>
        <filter id="filter-1">
            <feColorMatrix in="SourceGraphic" type="matrix" values="0 0 0 0 0.709804 0 0 0 0 0.709804 0 0 0 0 0.709804 0 0 0 1.000000 0"></feColorMatrix>
        </filter>
    </defs>
    <g id="Page-1" stroke="none" stroke-width="1" fill="none" fill-rule="evenodd">
        <g id="noun-send-mail-314921" transform="translate(-152.000000, -372.000000)" filter="url(#filter-1)">
            <g transform="translate(152.000000, 372.000000)">
                <path d="M468.67,233.67 L121,233.67 C117.5,233.67 114,231.338 111.668,229.002 C109.3321,226.67 109.3321,222.002 110.5,217.334 L179.332,8.504 C180.5,3.836 185.164,0.336 191,0.336 L538.67,0.336 C542.17,0.336 545.67,2.668 548.002,5.004 C550.334,7.336 550.334,12.004 549.17,15.504 L480.338,224.334 C478.0021,230.1699 473.3341,233.67 468.67,233.67 L468.67,233.67 Z M137.33,210.334 L460.5,210.334 L521.168,23.674 L197.998,23.674 L137.33,210.334 Z" id="Shape" fill="#7E7E7E" fill-rule="nonzero"></path>
                <path d="M317,166 C313.5,166 311.168,164.832 308.832,162.5 L181.672,20.17 C177.004,15.502 178.172,8.502 182.84,3.838 C187.508,-0.83 194.508,0.338 199.172,5.006 L319.342,139.176 L531.672,2.676 C537.504,-0.824 544.504,0.344 548.004,6.176 C551.504,12.008 550.336,19.008 544.504,22.508 L324.004,163.678 C321.672,164.8421 319.336,166.01 317.004,166.01 L317,166 Z" id="Path" fill="#7E7E7E" fill-rule="nonzero"></path>
                <path d="M468.67,233.67 L121,233.67 C115.168,233.67 111.668,230.17 109.332,225.502 C108.164,220.834 110.5,215.002 115.164,212.67 L284.334,115.838 C289.002,113.506 294.834,113.506 298.334,118.17 L318.166,140.338 L356.666,115.838 C361.334,113.506 367.166,113.506 370.666,117.006 L475.666,213.838 C479.166,217.338 480.334,222.006 479.166,226.67 C478.0019,230.17 473.334,233.67 468.67,233.67 Z M165.33,210.334 L439.5,210.334 L362.5,139.166 L324,163.67 C319.332,167.17 312.332,166.002 308.832,161.338 L287.832,138.006 L165.33,210.334 Z" id="Shape" fill="#7E7E7E" fill-rule="nonzero"></path>
                <path d="M128,52.83 L12.5,52.83 C5.5,52.83 0.832,48.162 0.832,41.162 C0.832,34.162 5.5,29.494 12.5,29.494 L128,29.494 C135,29.494 139.668,34.162 139.668,41.162 C139.668,48.1659 133.8321,52.83 128,52.83 Z" id="Path" fill="#7E7E7E" fill-rule="nonzero"></path>
                <path d="M105.83,128.67 L12.498,128.67 C5.498,128.67 0.83,124.002 0.83,117.002 C0.83,110.002 5.498,105.334 12.498,105.334 L105.83,105.334 C112.83,105.334 117.498,110.002 117.498,117.002 C117.498,124.002 111.666,128.67 105.83,128.67 Z" id="Path" fill="#7E7E7E" fill-rule="nonzero"></path>
                <path d="M83.67,204.5 L12.502,204.5 C5.502,204.5 0.834,199.832 0.834,192.832 C0.834,185.832 5.502,181.164 12.502,181.164 L83.67,181.164 C90.67,181.164 95.338,185.832 95.338,192.832 C95.334093,199.832 90.67,204.5 83.67,204.5 Z" id="Path" fill="#7E7E7E" fill-rule="nonzero"></path>
            </g>
        </g>
    </g>
</svg>