<?xml version="1.0" encoding="UTF-8"?>
<svg width="34px" height="31px" viewBox="0 0 34 31" version="1.1" xmlns="http://www.w3.org/2000/svg" xmlns:xlink="http://www.w3.org/1999/xlink">
    <title>noun_Moon_810789</title>
    <g id="Page-1" stroke="none" stroke-width="1" fill="none" fill-rule="evenodd" opacity="1">
        <g id="Praktijk-Planner" transform="translate(-489.000000, -516.000000)" fill-rule="nonzero">
            <g id="Group-4" transform="translate(481.000000, 453.000000)">
                <g id="Group-3" transform="translate(7.806818, 11.000000)">
                    <g id="noun_Moon_810789" transform="translate(0.693182, 54.000000)">
                        <path d="M31.6315088,19.5159091 L31.6315088,19.5017045 L1.36849123,19.5017045 L1.36849123,19.5159091 C1.00526316,19.5159091 0.710526316,19.8139205 0.710526316,20.1818182 C0.710526316,20.5497159 1.00526316,20.8477273 1.36849123,20.8477273 L31.6315088,20.8477273 C31.9947368,20.8477273 32.2894737,20.5497159 32.2894737,20.1818182 C32.2894737,19.8139205 31.9947368,19.5159091 31.6315088,19.5159091 Z" id="Path" fill="#2a990f"></path>
                        <path d="M16.9656842,22.3755682 C16.9654035,22.3752841 16.9654035,22.375 16.9651228,22.3747159 C16.9651228,22.3747159 16.9651228,22.3747159 16.9648421,22.3744318 C16.9625965,22.3721591 16.9597895,22.3707386 16.9578246,22.3684659 C16.9289123,22.3400568 16.8980351,22.3142045 16.8646316,22.2914773 C16.8486316,22.2806818 16.8315088,22.2735795 16.8146667,22.2639205 C16.793614,22.2522727 16.7736842,22.2394886 16.7509474,22.2301136 C16.7301754,22.2215909 16.7085614,22.2164773 16.6869474,22.2102273 C16.6672982,22.2042614 16.6482105,22.1965909 16.628,22.1926136 C16.566807,22.1803977 16.5050526,22.1795455 16.4430175,22.1852273 C16.2563509,22.16875 16.0643509,22.2301136 15.9217544,22.3747159 L14.0621053,24.2571023 C14.0615439,24.2573864 14.0615439,24.2576705 14.0609825,24.2579545 C13.8038596,24.5178977 13.8038596,24.9394886 14.0609825,25.1994318 C14.3181053,25.4596591 14.7346667,25.459375 14.9912281,25.1994318 L15.841193,24.3392045 L15.841193,28.1721591 C15.841193,28.5400568 16.1359298,28.8380682 16.4991579,28.8380682 C16.8626667,28.8380682 17.1571228,28.5400568 17.1571228,28.1721591 L17.1571228,24.4525568 L17.8950877,25.1994318 C18.1522105,25.4596591 18.5682105,25.4596591 18.8253333,25.1994318 C19.0818947,24.9394886 19.0824561,24.5181818 18.8253333,24.2579545 L16.9656842,22.3755682 Z" id="Path" fill="#2a990f" transform="translate(16.443053, 25.509957) rotate(180.000000) translate(-16.443053, -25.509957) "></path>
                        <path d="M22.3752253,13.6210563 C23.4394732,12.5575504 24.1464911,11.2672128 24.5,9.90994132 C21.7351881,11.9886119 17.7907727,11.7692174 15.2752776,9.25547615 C12.7486191,6.73057928 12.5365138,2.76660275 14.6464039,0 C13.2658585,0.342106792 11.959736,1.05235024 10.8806035,2.13073035 C7.70646549,5.30265528 7.70646549,10.4454128 10.8806035,13.6210563 C14.0547416,16.7929812 19.2010873,16.7929812 22.3752253,13.6210563 Z" id="Path" stroke="#2a990f" stroke-width="1.5"></path>
                    </g>
                </g>
            </g>
        </g>
    </g>
</svg>