<?xml version="1.0" encoding="UTF-8"?>
<svg width="33px" height="31px" viewBox="0 0 33 31" version="1.1" xmlns="http://www.w3.org/2000/svg" xmlns:xlink="http://www.w3.org/1999/xlink">
    <title>Group 10</title>
    <g id="Page-1" stroke="none" stroke-width="1" fill="none" fill-rule="evenodd" opacity="0.25419132">
        <g id="Praktijk-Planner" transform="translate(-546.000000, -516.000000)" fill-rule="nonzero">
            <g id="Group-4" transform="translate(481.000000, 453.000000)">
                <g id="Group-3" transform="translate(7.806818, 11.000000)">
                    <g id="Group-10" transform="translate(57.403708, 54.000000)">
                        <g id="noun_Moon_810789" transform="translate(7.289474, 0.000000)" stroke="#000000" stroke-width="1.5">
                            <path d="M14.3752253,13.6210563 C15.4394732,12.5575504 16.1464911,11.2672128 16.5,9.90994132 C13.7351881,11.9886119 9.79077272,11.7692174 7.27527763,9.25547615 C4.74861911,6.73057928 4.53651375,2.76660275 6.64640386,0 C5.26585848,0.342106792 3.95973603,1.05235024 2.88060352,2.13073035 C-0.293534508,5.30265528 -0.293534508,10.4454128 2.88060352,13.6210563 C6.05474155,16.7929812 11.2010873,16.7929812 14.3752253,13.6210563 Z" id="Path"></path>
                        </g>
                        <path d="M30.9209825,19.5159091 L30.9209825,19.5017045 L0.657964912,19.5017045 L0.657964912,19.5159091 C0.294736842,19.5159091 3.35731443e-13,19.8139205 3.35731443e-13,20.1818182 C3.35731443e-13,20.5497159 0.294736842,20.8477273 0.657964912,20.8477273 L30.9209825,20.8477273 C31.2842105,20.8477273 31.5789474,20.5497159 31.5789474,20.1818182 C31.5789474,19.8139205 31.2842105,19.5159091 30.9209825,19.5159091 Z" id="Path" fill="#000000"></path>
                        <path d="M16.2551579,22.3755682 C16.2548772,22.3752841 16.2548772,22.375 16.2545965,22.3747159 C16.2545965,22.3747159 16.2545965,22.3747159 16.2543158,22.3744318 C16.2520702,22.3721591 16.2492632,22.3707386 16.2472982,22.3684659 C16.218386,22.3400568 16.1875088,22.3142045 16.1541053,22.2914773 C16.1381053,22.2806818 16.1209825,22.2735795 16.1041404,22.2639205 C16.0830877,22.2522727 16.0631579,22.2394886 16.0404211,22.2301136 C16.0196491,22.2215909 15.9980351,22.2164773 15.9764211,22.2102273 C15.9567719,22.2042614 15.9376842,22.1965909 15.9174737,22.1926136 C15.8562807,22.1803977 15.7945263,22.1795455 15.7324912,22.1852273 C15.5458246,22.16875 15.3538246,22.2301136 15.2112281,22.3747159 L13.3515789,24.2571023 C13.3510175,24.2573864 13.3510175,24.2576705 13.3504561,24.2579545 C13.0933333,24.5178977 13.0933333,24.9394886 13.3504561,25.1994318 C13.6075789,25.4596591 14.0241404,25.459375 14.2807018,25.1994318 L15.1306667,24.3392045 L15.1306667,28.1721591 C15.1306667,28.5400568 15.4254035,28.8380682 15.7886316,28.8380682 C16.1521404,28.8380682 16.4465965,28.5400568 16.4465965,28.1721591 L16.4465965,24.4525568 L17.1845614,25.1994318 C17.4416842,25.4596591 17.8576842,25.4596591 18.114807,25.1994318 C18.3713684,24.9394886 18.3719298,24.5181818 18.114807,24.2579545 L16.2551579,22.3755682 Z" id="Path" fill="#000000"></path>
                    </g>
                </g>
            </g>
        </g>
    </g>
</svg>