<?xml version="1.0" encoding="UTF-8"?>
<svg width="28px" height="23px" viewBox="0 0 28 23" version="1.1" xmlns="http://www.w3.org/2000/svg" xmlns:xlink="http://www.w3.org/1999/xlink">
    <title>noun_Party_3832020</title>
    <g id="Page-1" stroke="none" stroke-width="1" fill="none" fill-rule="evenodd">
        <g id="Aanwezigheidsplanner-(secretaris)" transform="translate(-871.000000, -423.000000)" fill="#FFFFFF" fill-rule="nonzero">
            <g id="noun_Party_3832020" transform="translate(871.000000, 423.000000)">
                <path d="M0.914891842,7.13490656 L3.48787805,6.63940195 L3.27925755,9.06241952 C3.26020668,9.27574325 3.39118979,9.47628293 3.60402487,9.55964955 C3.81685995,9.64301617 4.0634259,9.5903609 4.21537519,9.42909293 L7.54260476,5.96056063 L8.13102157,6.27272853 L6.26948477,10.3903719 C6.18765004,10.5897995 6.25281048,10.8153593 6.43123167,10.950276 C6.60965287,11.0851927 6.86127241,11.0991723 7.05582359,10.9849774 L9.31855366,9.75612598 L9.95511366,12.1097729 C10.0154614,12.3363093 10.2382506,12.4931516 10.490038,12.4863564 C10.706635,12.4881958 10.9030504,12.3688581 10.9875177,12.1840986 L12.838356,8.08132038 L13.474916,8.25970204 L12.4050673,12.5656371 C12.3525498,12.7726815 12.4485286,12.9876779 12.6435707,13.0998947 C12.8386129,13.2121115 13.0892104,13.1965165 13.2662955,13.0611418 L15.2776111,11.5003022 L16.3474599,13.7251179 C16.439491,13.9207029 16.656346,14.0397589 16.8857497,14.0206452 C17.1151534,14.0015316 17.3055919,13.8485406 17.3584669,13.6408822 L18.5085543,9.09710484 C18.7064763,9.09710484 18.9043983,9.13179016 19.1023204,9.14170026 L18.9953355,13.6359271 C18.9813478,13.8553485 19.1250832,14.0570807 19.3483856,14.1314317 C19.5533529,14.174976 19.7668479,14.1032388 19.8940084,13.948095 L21.4987815,12.0404023 L23.0286652,14.0224207 C23.1630899,14.1946192 23.4010832,14.2682481 23.6202414,14.205439 C23.8393995,14.14263 23.990922,13.9573687 23.9968783,13.7449381 L24.1145617,8.93854336 C24.1170643,8.91547792 24.1170643,8.89223817 24.1145617,8.86917272 C25.0417679,8.71473413 25.9502116,8.47572864 26.8266282,8.15564607 C27.0690731,8.03826273 27.1768384,7.77035123 27.0764257,7.53463325 C26.9760131,7.29891527 26.6997842,7.17135979 26.4361334,7.23896253 C19.4821167,10.0286535 5.84154527,6.44615515 2.9422552,0.301897919 C2.82686929,0.0502892993 2.51330233,-0.0672248582 2.24150427,0.0392804726 C1.23584646,0.435684165 3.14552646,2.42265767 3.6162599,2.97762284 L0.406713692,6.322279 C0.255190888,6.48207231 0.230654324,6.71361312 0.345741306,6.89764869 C0.460828288,7.08168426 0.689866378,7.17716179 0.914891842,7.13490656 Z M20.1026289,9.16647549 C21.0840833,9.18926723 22.0659634,9.1412232 23.0393637,9.02277915 L22.9644743,12.228694 L21.9588165,10.940382 C21.8600639,10.811868 21.7011533,10.7345879 21.530877,10.7322701 C21.3628559,10.7231183 21.2014387,10.7941413 21.1029375,10.9205618 L20.0330888,12.1840986 L20.1026289,9.16647549 Z M14.4752246,8.50745435 C15.4281067,8.71914658 16.3922869,8.88454058 17.3638162,9.00295896 L16.614922,11.9759867 L15.9195204,10.4894728 C15.8513731,10.3467358 15.7146086,10.2420821 15.5504225,10.2070352 C15.3871014,10.1705387 15.2147582,10.2072382 15.0850383,10.3061361 L13.7584259,11.3367857 L14.4752246,8.50745435 Z M11.8006027,7.76915247 L10.5809752,10.4448774 L10.1583849,8.8889929 C10.1167974,8.73668341 9.99969789,8.61166691 9.84277954,8.55204976 C9.68783998,8.49221577 9.51156452,8.50322377 9.36669686,8.58178004 L7.87425787,9.39440761 L9.0778377,6.72859278 C9.95752207,7.12378864 10.8612889,7.4712292 11.784555,7.76915247 L11.8006027,7.76915247 Z M4.33305855,3.69610453 C5.04320945,4.32280792 5.80907433,4.89300128 6.62253485,5.40064041 L4.48283738,7.66014146 L4.61656847,6.05966155 C4.63076249,5.90449377 4.5653827,5.75217164 4.44004343,5.64839272 C4.31317397,5.5442422 4.14051877,5.50196136 3.97465923,5.53442666 L2.27894898,5.8614597 L4.33305855,3.69610453 Z M27.0298995,19.8297348 C27.1903257,19.6784469 27.2290347,19.4493639 27.1261859,19.2599045 L24.9543929,15.2958676 C25.5909529,14.8499134 27.9339217,13.4030399 27.0940904,12.7737491 C26.8647408,12.6039484 26.5305053,12.6371203 26.3451963,12.8480748 C21.8518316,18.1053787 7.66563737,18.3729512 1.70657991,14.057106 C1.46877136,13.915852 1.15338046,13.9702416 0.986381265,14.1813053 C0.819382074,14.392369 0.858351837,14.6873372 1.07536915,14.8548685 C1.83771743,15.3676826 2.65088135,15.8123265 3.50392578,16.1828208 C3.50392578,16.1828208 3.50392578,16.2175062 3.50392578,16.2422814 L2.3056952,20.9148899 C2.25317773,21.1219343 2.34915652,21.3369307 2.54419867,21.4491475 C2.73924082,21.5613643 2.9898383,21.5457693 3.16692343,21.4103945 L5.15684208,19.8594651 L6.22669082,22.0892359 C6.31770347,22.2843566 6.5329238,22.4039727 6.76161518,22.3865386 C6.99081311,22.3664431 7.18042191,22.2127615 7.23234863,22.0050001 L8.35034056,17.6296943 L8.93875736,17.7337503 L8.81037551,22.3914937 C8.80158462,22.6066741 8.94383108,22.8024813 9.16233612,22.8759795 C9.38084116,22.9494778 9.62557854,22.8838399 9.76789013,22.7135717 L11.3726632,20.8058789 L12.8918484,22.7878974 C13.0242593,22.9637759 13.2637735,23.0408078 13.4853576,22.9787802 C13.7069417,22.9167526 13.8603145,22.7297405 13.8654108,22.5153698 L14.0098404,18.0806035 L14.6731466,18.0806035 L15.3525005,22.4757295 C15.3833855,22.688154 15.558219,22.8581012 15.7857893,22.8969084 C16.0019369,22.9229933 16.2135531,22.8249824 16.3207136,22.6491561 L17.5831351,20.5184862 L19.4393227,22.2378872 C19.6020029,22.3901684 19.8519117,22.4283578 20.0587755,22.3325479 C20.2656394,22.2367381 20.3826026,22.0286306 20.3486941,21.8167083 L19.6746894,17.381942 C19.8940084,17.3323915 20.1133274,17.272931 20.3272972,17.2134704 L22.5953765,21.3757092 C22.6989397,21.5672939 22.9237065,21.6755173 23.1524889,21.6439544 C23.3812712,21.6123914 23.5622367,21.4481928 23.6010343,21.2369679 L24.0610692,18.8684559 L26.4093872,19.9437009 C26.6209117,20.0352083 26.8720698,19.9890795 27.0298995,19.8297348 Z M6.54229619,20.3252394 L5.85224376,18.8387256 C5.78519045,18.6971775 5.65066632,18.5927243 5.48849519,18.5562879 C5.32517404,18.5197915 5.15283086,18.556491 5.02311099,18.6553889 L3.69114931,19.6860385 L4.48818662,16.5594043 C5.40016594,16.8990796 6.33681255,17.1789046 7.29119031,17.3968071 L6.54229619,20.3252394 Z M12.838356,20.9941707 L11.8380474,19.6860385 C11.7404099,19.5589092 11.5838354,19.4818014 11.4154572,19.4779265 C11.2453911,19.4660465 11.0810163,19.537478 10.9821684,19.6662183 L9.91231971,20.9248 L9.99255837,17.8774466 C10.9629252,17.9975347 11.9398107,18.0670149 12.9185947,18.0855586 L12.838356,20.9941707 Z M17.8452481,19.3342302 C17.7266649,19.2224559 17.5579888,19.1692331 17.390404,19.1907122 C17.2228191,19.2121913 17.0760816,19.3058401 16.9947183,19.4432412 L16.1495378,20.8504743 L15.7162491,18.0013228 C16.6902514,17.9220981 17.658362,17.7897338 18.6155392,17.6049191 L19.0541772,20.4689358 L17.8452481,19.3342302 Z M23.8952427,17.6643796 C23.7443566,17.5948337 23.5669114,17.5952221 23.4163819,17.665428 C23.2658524,17.7356339 23.1598431,17.8674465 23.1303008,18.021143 L22.8307432,19.6018027 L21.3597012,16.8864374 C22.2840825,16.590503 23.1789829,16.2207898 24.034323,15.7814621 L25.4465234,18.3729512 L23.8952427,17.6643796 Z" id="Shape"></path>
            </g>
        </g>
    </g>
</svg>