<svg xmlns="http://www.w3.org/2000/svg" xmlns:xlink="http://www.w3.org/1999/xlink" width="57" height="44" viewBox="0 0 57 44">
  <defs>
    <linearGradient id="linear-gradient" x1="0.939" y1="0.978" x2="0.069" y2="0.127" gradientUnits="objectBoundingBox">
      <stop offset="0" stop-color="#557f9b"/>
      <stop offset="1" stop-color="#5fc1ca"/>
    </linearGradient>
  </defs>
  <g id="Group_17" data-name="Group 17" transform="translate(-1 -4)">
    <rect id="Rectangle" width="57" height="44" transform="translate(1 4)" fill="url(#linear-gradient)"/>
    <g id="noun_Party_3832020" transform="translate(17.726 16.616)">
      <path id="Shape" d="M10.749,18.825,9.455,17.188,8.088,18.763a.489.489,0,0,1-.516.135.412.412,0,0,1-.3-.4l.11-3.848-.5-.086-.952,3.614a.443.443,0,0,1-.4.315.467.467,0,0,1-.456-.245L4.16,16.406l-1.7,1.281a.5.5,0,0,1-.531.032.391.391,0,0,1-.2-.441l1.02-3.86v-.049a13.075,13.075,0,0,1-2.068-1.1.381.381,0,0,1-.076-.556.489.489,0,0,1,.613-.1c5.076,3.565,17.161,3.344,20.988-1a.491.491,0,0,1,.638-.062c.716.52-1.28,1.715-1.822,2.083l1.85,3.275a.379.379,0,0,1-.082.471.493.493,0,0,1-.528.094l-2-.888-.392,1.957a.436.436,0,0,1-.382.336.471.471,0,0,1-.475-.222L17.083,14.22c-.182.049-.37.1-.556.139l.574,3.664a.4.4,0,0,1-.248.426.5.5,0,0,1-.527-.078L14.745,16.95,13.67,18.71a.473.473,0,0,1-.455.2.433.433,0,0,1-.37-.348l-.579-3.63H11.7L11.578,18.6a.419.419,0,0,1-.324.383.5.5,0,0,1-.132.018A.473.473,0,0,1,10.749,18.825Zm8.635-7.241-1.3-1.637-1.367,1.576a.485.485,0,0,1-.465.152.411.411,0,0,1-.3-.41l.091-3.713c-.169-.008-.337-.036-.506-.036l-.98,3.754a.443.443,0,0,1-.4.313.464.464,0,0,1-.458-.244L12.781,9.5l-1.713,1.289a.5.5,0,0,1-.531.032.393.393,0,0,1-.2-.441l.912-3.558L10.7,6.676l-1.577,3.39a.46.46,0,0,1-.423.25A.452.452,0,0,1,8.247,10L7.705,8.059,5.778,9.075a.5.5,0,0,1-.532-.029.383.383,0,0,1-.138-.462l1.585-3.4-.5-.258L3.358,7.789a.493.493,0,0,1-.521.108.407.407,0,0,1-.276-.411l.177-2-2.192.41a.475.475,0,0,1-.485-.2.376.376,0,0,1,.052-.475L2.848,2.459C2.447,2,.82.36,1.676.033a.476.476,0,0,1,.6.216c2.47,5.076,14.09,8.036,20.013,5.731a.471.471,0,0,1,.546.245.392.392,0,0,1-.213.513,13.326,13.326,0,0,1-2.31.59.238.238,0,0,1,0,.057l-.1,3.97a.419.419,0,0,1-.32.381.5.5,0,0,1-.135.018A.474.474,0,0,1,19.384,11.583Z" transform="translate(0.274 0.384)" fill="#fff"/>
    </g>
  </g>
</svg>
