<?xml version="1.0" encoding="UTF-8"?>
<svg width="27px" height="23px" viewBox="0 0 27 23" version="1.1" xmlns="http://www.w3.org/2000/svg" xmlns:xlink="http://www.w3.org/1999/xlink">
    <title>Group 9</title>
    <g id="Page-1" stroke="none" stroke-width="1" fill="none" fill-rule="evenodd">
        <g id="Rooster-Maken-(secretatis)" transform="translate(-1085.000000, -32.000000)" fill="#22303E" fill-rule="nonzero">
            <g id="Group-9" transform="translate(1085.000000, 31.999969)">
                <path d="M10.4583398,20.0000236 C11.7500098,20.0000236 12.9583463,19.3958554 13.7291817,18.3750193 L18.9166953,11.4583345 C19.1250292,11.1666671 19.4583634,11 19.812531,11 L21.8750364,11 L21.8750364,12.8750049 C21.8750364,13.0208386 21.9583699,13.1666723 22.1042037,13.2291725 C22.1458704,13.2500059 22.2083706,13.2500059 22.2500374,13.2500059 C22.3542043,13.2500059 22.4375379,13.2083391 22.5208714,13.145839 L25.8958803,9.77083011 C26.041714,9.62499639 26.041714,9.37499574 25.8958803,9.22916202 L22.5208714,5.85415317 C22.4167045,5.74998623 22.2500374,5.72915284 22.1042037,5.77081962 C21.9583699,5.83331978 21.8750364,5.9791535 21.8750364,6.12498721 L21.8750364,7.99999213 L19.7916976,7.99999213 C18.5000275,7.99999213 17.291691,8.60416038 16.5208557,9.62499639 L11.3333421,16.5416812 C11.1250082,16.8333486 10.791674,17.0000157 10.4375064,17.0000157 L8.37500098,17.0000157 C8.1666671,17.0000157 8,17.1666828 8,17.3750167 L8,19.6250226 C8,19.8333565 8.1666671,20.0000236 8.37500098,20.0000236 L10.4583398,20.0000236 Z M12.2500111,12.6875044 L14.1250161,10.1874979 L13.7291817,9.62499639 C12.9583463,8.60416038 11.7500098,7.99999213 10.4583398,7.99999213 L8.37500098,7.99999213 C8.1666671,7.99999213 8,8.16665924 8,8.37499312 L8,10.624999 C8,10.8333329 8.1666671,10.9999921 8.37500098,10.9999921 L10.4375064,10.9999921 C10.791674,10.9999921 11.1250082,11.1666671 11.3333421,11.4583345 L12.2500111,12.6875044 Z M22.2500374,22.2500295 C22.3542043,22.2500295 22.4375379,22.2083627 22.5208714,22.1458626 L25.8958803,18.7708537 C26.041714,18.62502 26.041714,18.3750193 25.8958803,18.2291856 L22.5208714,14.8541768 C22.4167045,14.7500098 22.2500374,14.7291764 22.1042037,14.7708432 C21.9583699,14.8333434 21.8750364,14.9791771 21.8750364,15.1250108 L21.8750364,17.0000157 L19.812531,17.0000157 C19.4583634,17.0000157 19.1250292,16.8333486 18.9166953,16.5416812 L17.9791928,15.3125113 L16.1041879,17.8125179 L16.5208557,18.3750193 C17.291691,19.3958554 18.5000275,20.0000236 19.7916976,20.0000236 L21.8750364,20.0000236 L21.8750364,21.8750285 C21.8750364,22.0208622 21.9583699,22.166696 22.1042037,22.2291961 C22.1458704,22.2500295 22.2083706,22.2500295 22.2500374,22.2500295 Z" id="s"></path>
                <path d="M6.00001574,12.0000315 C9.30557996,12.0000315 12.0000315,9.31946889 12.0000315,6.00001574 C12.0000315,2.69445151 9.30557996,0 6.00001574,0 C2.68056259,0 0,2.69445151 0,6.00001574 C0,9.31946889 2.68056259,12.0000315 6.00001574,12.0000315 Z M6.7500177,7.25001901 L5.25001377,7.25001901 L5.25001377,6.7500177 C5.25001377,5.25000459 7.25001901,5.25000459 7.25001901,4.25000459 C7.25001901,3.75000459 6.7500177,3.25000459 6.00000918,3.25000459 C5.25001377,3.25000459 4.50000918,4.00001049 4.50000918,4.00001049 L3.50000918,3.00000787 C3.50000918,3.00000787 4.50000918,1.75000459 6.00000918,1.75000459 C7.51390859,1.75000459 8.75002295,2.75000459 8.75002295,4.25000459 C8.75002295,6.25001639 6.7500177,6.25001639 6.7500177,7.00001836 L6.7500177,7.25001901 Z M6.00001311,10.5000223 C5.44445872,10.5000223 5.00001311,10.0555819 5.00001311,9.50002229 C5.00001311,8.9444679 5.44445872,8.50002229 6.00001311,8.50002229 C6.55557275,8.50002229 7.00001311,8.9444679 7.00001311,9.50002229 C7.00001311,10.0555819 6.55557275,10.5000223 6.00001311,10.5000223 Z" id="h"></path>
            </g>
        </g>
    </g>
</svg>