<?xml version="1.0" encoding="UTF-8"?>
<svg width="33px" height="26px" viewBox="0 0 33 26" version="1.1" xmlns="http://www.w3.org/2000/svg" xmlns:xlink="http://www.w3.org/1999/xlink">
    <title>Group</title>
    <g id="Page-1" stroke="none" stroke-width="1" fill="none" fill-rule="evenodd" opacity="1">
        <g id="Praktijk-Planner" transform="translate(-490.000000, -464.000000)" fill="#2a990f" fill-rule="nonzero">
            <g id="Group-4" transform="translate(481.000000, 453.000000)">
                <g id="Group-3" transform="translate(7.806818, 11.000000)">
                    <g id="noun_sunrise_685070" transform="translate(1.000000, 0.000000)">
                        <g id="Group" transform="translate(0.193182, 0.000000)">
                            <g id="Group-9" transform="translate(0.210526, 0.162216)">
                                <path d="M30.9209825,15.3536932 L30.9209825,15.3394886 L0.657964912,15.3394886 L0.657964912,15.3536932 C0.294736842,15.3536932 3.35731443e-13,15.6517045 3.35731443e-13,16.0196023 C3.35731443e-13,16.3875 0.294736842,16.6855114 0.657964912,16.6855114 L30.9209825,16.6855114 C31.2842105,16.6855114 31.5789474,16.3875 31.5789474,16.0196023 C31.5789474,15.6517045 31.2842105,15.3536932 30.9209825,15.3536932 Z" id="Path"></path>
                                <path d="M15.7889123,5.32670455 C16.1524211,5.32670455 16.4468772,5.02869318 16.4468772,4.66079545 L16.4468772,0.667329545 C16.4468772,0.666761364 16.4471579,0.666477273 16.4471579,0.665909091 C16.4471579,0.298295455 16.1524211,-2.48689958e-13 15.789193,-2.48689958e-13 C15.4256842,-2.48689958e-13 15.1309474,0.298295455 15.1309474,0.665909091 L15.1309474,4.66079545 C15.1309474,5.02869318 15.4256842,5.32670455 15.7889123,5.32670455 Z" id="Path"></path>
                                <path d="M3.28898246,13.9826705 L7.23621053,13.9826705 C7.5997193,13.9826705 7.89417544,13.6846591 7.89417544,13.3167614 C7.89417544,12.9491477 7.5997193,12.6508523 7.23621053,12.6508523 L3.29038596,12.6508523 C3.28982456,12.6508523 3.28954386,12.6508523 3.28898246,12.6508523 C2.92575439,12.6508523 2.63101754,12.9488636 2.63101754,13.3167614 C2.63101754,13.6846591 2.92575439,13.9826705 3.28898246,13.9826705 Z" id="Path"></path>
                                <path d="M24.3567719,12.6511364 C23.9935439,12.6511364 23.698807,12.9491477 23.698807,13.3170455 C23.698807,13.6849432 23.9935439,13.9829545 24.3567719,13.9829545 L28.2896842,13.9829545 C28.653193,13.9829545 28.9473684,13.6849432 28.9473684,13.3170455 C28.9473684,12.9494318 28.653193,12.6511364 28.2896842,12.6511364 L24.3581754,12.6511364 C24.357614,12.6511364 24.3573333,12.6511364 24.3567719,12.6511364 Z" id="Path"></path>
                                <path d="M22.3014737,7.66676136 L25.0916491,4.84318182 C25.0922105,4.84261364 25.0924912,4.84261364 25.0927719,4.84204545 C25.349614,4.58238636 25.349614,4.16079545 25.0927719,3.90056818 C24.8359298,3.640625 24.4193684,3.640625 24.1625263,3.90056818 L21.3712281,6.72528409 C21.114386,6.98551136 21.114386,7.40681818 21.3712281,7.66676136 C21.6283509,7.92698864 22.0446316,7.92698864 22.3014737,7.66676136 Z" id="Path"></path>
                                <path d="M9.27607018,7.66676136 C9.53291228,7.92698864 9.94919298,7.92698864 10.2063158,7.66676136 C10.4628772,7.40681818 10.4631579,6.98551136 10.2063158,6.72528409 L7.41614035,3.90170455 C7.41585965,3.90113636 7.41557895,3.90085227 7.41529825,3.90056818 C7.15845614,3.640625 6.74189474,3.64034091 6.48505263,3.90056818 C6.22792982,4.16079545 6.22821053,4.58210227 6.48505263,4.84204545 L9.27607018,7.66676136 Z" id="Path"></path>
                                <path d="M9.24266667,13.9826705 L10.5715088,13.9826705 C10.5445614,13.7639205 10.5263158,13.5428977 10.5263158,13.3167614 C10.5263158,10.3747159 12.8774737,7.99346591 15.7838596,7.99034091 L15.7950877,7.99034091 C18.7014737,7.99346591 21.0526316,10.3747159 21.0526316,13.3167614 C21.0526316,13.5428977 21.034386,13.7639205 21.0071579,13.9826705 L22.336,13.9826705 C22.357614,13.7636364 22.3688421,13.5414773 22.3688421,13.3167614 C22.3688421,9.65 19.4478596,6.68153409 15.8298947,6.659375 L15.8298947,6.65823864 L15.7479298,6.65823864 L15.7479298,6.659375 C12.130807,6.68153409 9.21010526,9.65028409 9.21010526,13.3167614 C9.21010526,13.5414773 9.22133333,13.7639205 9.24266667,13.9826705 Z" id="Path"></path>
                                <path d="M16.2551579,18.2133523 C16.2548772,18.2130682 16.2548772,18.2127841 16.2545965,18.2125 C16.2545965,18.2125 16.2545965,18.2125 16.2543158,18.2122159 C16.2520702,18.2099432 16.2492632,18.2085227 16.2472982,18.20625 C16.218386,18.1778409 16.1875088,18.1519886 16.1541053,18.1292614 C16.1381053,18.1184659 16.1209825,18.1113636 16.1041404,18.1017045 C16.0830877,18.0900568 16.0631579,18.0772727 16.0404211,18.0678977 C16.0196491,18.059375 15.9980351,18.0542614 15.9764211,18.0480114 C15.9567719,18.0420455 15.9376842,18.034375 15.9174737,18.0303977 C15.8562807,18.0181818 15.7945263,18.0173295 15.7324912,18.0230114 C15.5458246,18.0065341 15.3538246,18.0678977 15.2112281,18.2125 L13.3515789,20.0948864 C13.3510175,20.0951705 13.3510175,20.0954545 13.3504561,20.0957386 C13.0933333,20.3556818 13.0933333,20.7772727 13.3504561,21.0372159 C13.6075789,21.2974432 14.0241404,21.2971591 14.2807018,21.0372159 L15.1306667,20.1769886 L15.1306667,24.0099432 C15.1306667,24.3778409 15.4254035,24.6758523 15.7886316,24.6758523 C16.1521404,24.6758523 16.4465965,24.3778409 16.4465965,24.0099432 L16.4465965,20.2903409 L17.1845614,21.0372159 C17.4416842,21.2974432 17.8576842,21.2974432 18.114807,21.0372159 C18.3713684,20.7772727 18.3719298,20.3559659 18.114807,20.0957386 L16.2551579,18.2133523 Z" id="Path"></path>
                            </g>
                        </g>
                    </g>
                </g>
            </g>
        </g>
    </g>
</svg>