<?xml version="1.0" encoding="UTF-8"?>
<svg width="34px" height="25px" viewBox="0 0 34 25" version="1.1" xmlns="http://www.w3.org/2000/svg" xmlns:xlink="http://www.w3.org/1999/xlink">
    <title>noun_sunrise_685070</title>
    <g id="Page-1" stroke="none" stroke-width="1" fill="none" fill-rule="evenodd" opacity="1">
        <g id="Praktijk-Planner" transform="translate(-545.000000, -464.000000)" fill="#2a990f" fill-rule="nonzero">
            <g id="Group-4" transform="translate(481.000000, 453.000000)">
                <g id="Group-3" transform="translate(7.806818, 11.000000)">
                    <g id="noun_sunrise_685070" transform="translate(57.000000, 0.000000)">
                        <g id="Group" transform="translate(0.193182, 0.000000)">
                            <path d="M31.1315088,15.5159091 L31.1315088,15.5017045 L0.868491228,15.5017045 L0.868491228,15.5159091 C0.505263158,15.5159091 0.210526316,15.8139205 0.210526316,16.1818182 C0.210526316,16.5497159 0.505263158,16.8477273 0.868491228,16.8477273 L31.1315088,16.8477273 C31.4947368,16.8477273 31.7894737,16.5497159 31.7894737,16.1818182 C31.7894737,15.8139205 31.4947368,15.5159091 31.1315088,15.5159091 Z" id="Path"></path>
                            <path d="M15.9994386,5.48892045 C16.3629474,5.48892045 16.6574035,5.19090909 16.6574035,4.82301136 L16.6574035,0.829545455 C16.6574035,0.828977273 16.6576842,0.828693182 16.6576842,0.828125 C16.6576842,0.460511364 16.3629474,0.162215909 15.9997193,0.162215909 C15.6362105,0.162215909 15.3414737,0.460511364 15.3414737,0.828125 L15.3414737,4.82301136 C15.3414737,5.19090909 15.6362105,5.48892045 15.9994386,5.48892045 Z" id="Path"></path>
                            <path d="M3.49950877,14.1448864 L7.44673684,14.1448864 C7.81024561,14.1448864 8.10470175,13.846875 8.10470175,13.4789773 C8.10470175,13.1113636 7.81024561,12.8130682 7.44673684,12.8130682 L3.50091228,12.8130682 C3.50035088,12.8130682 3.50007018,12.8130682 3.49950877,12.8130682 C3.1362807,12.8130682 2.84154386,13.1110795 2.84154386,13.4789773 C2.84154386,13.846875 3.1362807,14.1448864 3.49950877,14.1448864 Z" id="Path"></path>
                            <path d="M24.5672982,12.8133523 C24.2040702,12.8133523 23.9093333,13.1113636 23.9093333,13.4792614 C23.9093333,13.8471591 24.2040702,14.1451705 24.5672982,14.1451705 L28.5002105,14.1451705 C28.8637193,14.1451705 29.1578947,13.8471591 29.1578947,13.4792614 C29.1578947,13.1116477 28.8637193,12.8133523 28.5002105,12.8133523 L24.5687018,12.8133523 C24.5681404,12.8133523 24.5678596,12.8133523 24.5672982,12.8133523 Z" id="Path"></path>
                            <path d="M22.512,7.82897727 L25.3021754,5.00539773 C25.3027368,5.00482955 25.3030175,5.00482955 25.3032982,5.00426136 C25.5601404,4.74460227 25.5601404,4.32301136 25.3032982,4.06278409 C25.0464561,3.80284091 24.6298947,3.80284091 24.3730526,4.06278409 L21.5817544,6.8875 C21.3249123,7.14772727 21.3249123,7.56903409 21.5817544,7.82897727 C21.8388772,8.08920455 22.2551579,8.08920455 22.512,7.82897727 Z" id="Path"></path>
                            <path d="M9.48659649,7.82897727 C9.7434386,8.08920455 10.1597193,8.08920455 10.4168421,7.82897727 C10.6734035,7.56903409 10.6736842,7.14772727 10.4168421,6.8875 L7.62666667,4.06392045 C7.62638596,4.06335227 7.62610526,4.06306818 7.62582456,4.06278409 C7.36898246,3.80284091 6.95242105,3.80255682 6.69557895,4.06278409 C6.43845614,4.32301136 6.43873684,4.74431818 6.69557895,5.00426136 L9.48659649,7.82897727 Z" id="Path"></path>
                            <path d="M9.45319298,14.1448864 L10.7820351,14.1448864 C10.7550877,13.9261364 10.7368421,13.7051136 10.7368421,13.4789773 C10.7368421,10.5369318 13.088,8.15568182 15.994386,8.15255682 L16.005614,8.15255682 C18.912,8.15568182 21.2631579,10.5369318 21.2631579,13.4789773 C21.2631579,13.7051136 21.2449123,13.9261364 21.2176842,14.1448864 L22.5465263,14.1448864 C22.5681404,13.9258523 22.5793684,13.7036932 22.5793684,13.4789773 C22.5793684,9.81221591 19.658386,6.84375 16.0404211,6.82159091 L16.0404211,6.82045455 L15.9584561,6.82045455 L15.9584561,6.82159091 C12.3413333,6.84375 9.42063158,9.8125 9.42063158,13.4789773 C9.42063158,13.7036932 9.43185965,13.9261364 9.45319298,14.1448864 Z" id="Path"></path>
                            <path d="M16.4656842,18.3755682 C16.4654035,18.3752841 16.4654035,18.375 16.4651228,18.3747159 C16.4651228,18.3747159 16.4651228,18.3747159 16.4648421,18.3744318 C16.4625965,18.3721591 16.4597895,18.3707386 16.4578246,18.3684659 C16.4289123,18.3400568 16.3980351,18.3142045 16.3646316,18.2914773 C16.3486316,18.2806818 16.3315088,18.2735795 16.3146667,18.2639205 C16.293614,18.2522727 16.2736842,18.2394886 16.2509474,18.2301136 C16.2301754,18.2215909 16.2085614,18.2164773 16.1869474,18.2102273 C16.1672982,18.2042614 16.1482105,18.1965909 16.128,18.1926136 C16.066807,18.1803977 16.0050526,18.1795455 15.9430175,18.1852273 C15.7563509,18.16875 15.5643509,18.2301136 15.4217544,18.3747159 L13.5621053,20.2571023 C13.5615439,20.2573864 13.5615439,20.2576705 13.5609825,20.2579545 C13.3038596,20.5178977 13.3038596,20.9394886 13.5609825,21.1994318 C13.8181053,21.4596591 14.2346667,21.459375 14.4912281,21.1994318 L15.341193,20.3392045 L15.341193,24.1721591 C15.341193,24.5400568 15.6359298,24.8380682 15.9991579,24.8380682 C16.3626667,24.8380682 16.6571228,24.5400568 16.6571228,24.1721591 L16.6571228,20.4525568 L17.3950877,21.1994318 C17.6522105,21.4596591 18.0682105,21.4596591 18.3253333,21.1994318 C18.5818947,20.9394886 18.5824561,20.5181818 18.3253333,20.2579545 L16.4656842,18.3755682 Z" id="Path" transform="translate(15.943053, 21.509957) rotate(180.000000) translate(-15.943053, -21.509957) "></path>
                        </g>
                    </g>
                </g>
            </g>
        </g>
    </g>
</svg>