<?xml version="1.0" encoding="UTF-8"?>
<svg width="15px" height="15px" viewBox="0 0 15 15" version="1.1" xmlns="http://www.w3.org/2000/svg" xmlns:xlink="http://www.w3.org/1999/xlink">
    <title>s</title>
    <g id="Page-1" stroke="none" stroke-width="1" fill="none" fill-rule="evenodd">
        <g id="Gebruikers-(secretatis)" transform="translate(-26.000000, -237.000000)" fill="#22303E" fill-rule="nonzero">
            <path d="M28.0486165,249.499993 C29.1250082,249.499993 30.1319553,248.99652 30.7743181,248.145823 L35.0972461,242.381919 C35.2708576,242.138863 35.5486362,241.999974 35.8437758,241.999974 L37.5625303,241.999974 L37.5625303,243.562478 C37.5625303,243.684006 37.631975,243.805534 37.753503,243.857618 C37.7882254,243.874979 37.8403088,243.874979 37.8750311,243.874979 C37.9618369,243.874979 38.0312816,243.840256 38.1007262,243.788173 L40.9132336,240.975666 C41.0347617,240.854137 41.0347617,240.645804 40.9132336,240.524275 L38.1007262,237.711768 C38.0139204,237.624962 37.8750311,237.607601 37.753503,237.642323 C37.631975,237.694407 37.5625303,237.815935 37.5625303,237.937463 L37.5625303,239.499967 L35.8264147,239.499967 C34.7500229,239.499967 33.7430759,240.003441 33.1007131,240.854137 L28.7777851,246.618041 C28.6041735,246.861098 28.326395,246.999987 28.0312553,246.999987 L26.3125008,246.999987 C26.1388893,246.999987 26,247.138876 26,247.312488 L26,249.187493 C26,249.361104 26.1388893,249.499993 26.3125008,249.499993 L28.0486165,249.499993 Z M29.541676,243.406227 L31.1041801,241.322889 L30.7743181,240.854137 C30.1319553,240.003441 29.1250082,239.499967 28.0486165,239.499967 L26.3125008,239.499967 C26.1388893,239.499967 26,239.638856 26,239.812468 L26,241.687473 C26,241.861085 26.1388893,241.999967 26.3125008,241.999967 L28.0312553,241.999967 C28.326395,241.999967 28.6041735,242.138863 28.7777851,242.381919 L29.541676,243.406227 Z M37.8750311,251.374998 C37.9618369,251.374998 38.0312816,251.340276 38.1007262,251.288193 L40.9132336,248.475685 C41.0347617,248.354157 41.0347617,248.145823 40.9132336,248.024295 L38.1007262,245.211788 C38.0139204,245.124982 37.8750311,245.107621 37.753503,245.142343 C37.631975,245.194427 37.5625303,245.315955 37.5625303,245.437483 L37.5625303,246.999987 L35.8437758,246.999987 C35.5486362,246.999987 35.2708576,246.861098 35.0972461,246.618041 L34.315994,245.593733 L32.7534899,247.677072 L33.1007131,248.145823 C33.7430759,248.99652 34.7500229,249.499993 35.8264147,249.499993 L37.5625303,249.499993 L37.5625303,251.062498 C37.5625303,251.184026 37.631975,251.305554 37.753503,251.357637 C37.7882254,251.374998 37.8403088,251.374998 37.8750311,251.374998 Z" id="s"></path>
        </g>
    </g>
</svg>