<?xml version="1.0" standalone="no"?>
<!DOCTYPE svg PUBLIC "-//W3C//DTD SVG 20010904//EN"
 "http://www.w3.org/TR/2001/REC-SVG-20010904/DTD/svg10.dtd">
<svg version="1.0" xmlns="http://www.w3.org/2000/svg"
 width="200.000000pt" height="212.000000pt" viewBox="0 0 200.000000 212.000000"
 preserveAspectRatio="xMidYMid meet">

<g transform="translate(0.000000,212.000000) scale(0.100000,-0.100000)"
fill="#000000" stroke="none">
<path d="M1130 2104 c-123 -26 -218 -71 -323 -152 -168 -129 -287 -366 -287
-572 0 -134 59 -310 142 -426 l32 -45 -150 -152 c-486 -494 -522 -532 -533
-569 -29 -91 47 -188 147 -188 56 0 82 23 456 398 l318 320 57 -24 c351 -142
758 20 931 371 57 114 74 190 74 315 -1 194 -63 345 -201 491 -97 101 -167
151 -270 191 -145 56 -267 70 -393 42z m253 -199 c37 -8 100 -31 139 -52 215
-113 322 -368 258 -617 -26 -103 -62 -168 -135 -241 -206 -208 -565 -208 -770
-1 -165 167 -203 422 -95 641 104 212 352 323 603 270z"/>
<path d="M1198 1741 l-33 -29 -3 -115 -4 -115 -120 -4 c-117 -3 -120 -4 -144
-31 -38 -44 -30 -109 20 -149 17 -14 42 -18 134 -18 l112 0 0 -116 c0 -114 0
-116 29 -145 32 -31 71 -38 114 -18 40 18 50 47 55 166 l5 113 114 0 c113 0
115 0 144 29 40 40 40 91 1 131 -27 26 -35 28 -145 35 l-117 7 0 104 c0 115
-10 148 -51 170 -42 21 -75 17 -111 -15z"/>
</g>
</svg>
